<svg xmlns="http://www.w3.org/2000/svg" viewBox="0 0 512 512" width="512" height="512">
  <defs>
    <linearGradient id="bg" x1="0" y1="0" x2="0" y2="1">
      <stop offset="0" stop-color="#4b8bef"/>
      <stop offset="1" stop-color="#2a5fb8"/>
    </linearGradient>
    <linearGradient id="sheet" x1="0" y1="0" x2="0" y2="1">
      <stop offset="0" stop-color="#ffffff"/>
      <stop offset="1" stop-color="#e9eef6"/>
    </linearGradient>
    <filter id="drop" x="-30%" y="-30%" width="160%" height="160%">
      <feDropShadow dx="0" dy="10" stdDeviation="14" flood-color="#10203a" flood-opacity="0.34"/>
    </filter>
  </defs>

  <rect x="26" y="26" width="460" height="460" rx="104" fill="url(#bg)"/>
  <rect x="26" y="26" width="460" height="460" rx="104" fill="none" stroke="#ffffff" stroke-opacity=".18" stroke-width="3"/>

  <g filter="url(#drop)">
    <path d="M132 104h174l74 74v230a26 26 0 0 1-26 26H132a26 26 0 0 1-26-26V130a26 26 0 0 1 26-26z" fill="url(#sheet)"/>
    <path d="M306 104l74 74h-56a18 18 0 0 1-18-18z" fill="#b9c8de"/>
  </g>

  <g stroke="#8fa0b8" stroke-width="17" stroke-linecap="round">
    <path d="M150 232h122"/>
    <path d="M150 280h186"/>
    <path d="M150 328h186"/>
  </g>

  <g transform="translate(256 392)">
    <rect x="-108" y="-44" width="216" height="88" rx="22" fill="#2a5fb8"/>
    <rect x="-108" y="-44" width="216" height="88" rx="22" fill="none" stroke="#ffffff" stroke-opacity=".25" stroke-width="3"/>
    <g fill="none" stroke="#ffffff" stroke-width="15" stroke-linecap="round" stroke-linejoin="round">
      <path d="M-74 22v-44l26 28 26-28v44"/>
      <path d="M34 -22v44"/>
      <path d="M12 2l22 20 22-20"/>
    </g>
  </g>
</svg>
